<svg width="24" height="24" viewBox="0 0 24 24" fill="none" xmlns="http://www.w3.org/2000/svg">
<g clip-path="url(#clip0_1_3214)">
<path fill-rule="evenodd" clip-rule="evenodd" d="M6.75067 5.25067L7.69333 6.19333L11.0573 9.55733L12 10.5L12.9427 9.55733L16.3067 6.19333L17.2493 5.25067L16.3067 4.30667L12.9427 0.942667L12 0L11.0573 0.942667L7.69333 4.30667L6.75067 5.25067ZM6.75067 18.7493L7.69333 19.6933L11.0573 23.0573L12 24L12.9427 23.0573L16.3067 19.6933L17.2493 18.7507L16.3067 17.8067L12.9427 14.4427L12 13.5L11.0573 14.4427L7.69333 17.8067L6.75067 18.7493ZM0.942667 12.9427L0 12L0.942667 11.0573L4.30667 7.69333L5.25067 6.75067L6.19333 7.69333L9.55733 11.0573L10.5 12L9.55733 12.9427L6.19333 16.3067L5.25067 17.2493L4.30667 16.3067L0.942667 12.9427ZM13.5 12L14.4427 12.9427L17.8067 16.3067L18.7493 17.2493L19.6933 16.3067L23.0573 12.9427L24 12L23.0573 11.0573L19.6933 7.69333L18.7507 6.75067L17.8067 7.69333L14.4427 11.0573L13.5 12Z" fill="#9747FF"/>
</g>
<defs>
<clipPath id="clip0_1_3214">
<rect width="24" height="24" fill="white"/>
</clipPath>
</defs>
</svg>
